<svg width="307" height="83" viewBox="0 0 307 83" fill="none" xmlns="http://www.w3.org/2000/svg">
<g clip-path="url(#clip0)">
<g clip-path="url(#clip1)">
<path d="M61.9071 29.9277L57.4303 40.1096H23.535C19.6977 40.1096 20.3375 29.9277 26.7326 29.9277H61.9071Z" fill="white"/>
<path d="M59.9879 65.5642L64.4646 53.4733H24.1739C14.9646 53.4733 9.67779 43.7157 8.18555 38.8369C8.18555 59.7096 18.8445 65.3521 24.1739 65.5642H59.9879Z" fill="white"/>
<path d="M54.8722 83.3819L59.3489 71.291H19.0582C7.54657 71.291 4.34889 56.6546 3.06982 50.291C3.06982 71.1637 4.98843 82.7455 19.0582 83.3819H54.8722Z" fill="white"/>
<path d="M142.414 83.0004V73.3589C143.887 73.3589 147.034 73.1259 147.034 76.0319C147.034 78.4455 144.382 78.815 142.876 78.6241" stroke="white"/>
<path d="M146.018 82.9997L142.744 79.4362V78.418L143.767 78.9271L147.349 82.9998L146.018 82.9997Z" fill="white"/>
<path d="M96.125 74.8724C95.201 73.8006 94.3879 73.4434 92.6139 73.4434C90.3965 73.4434 88.5477 74.8724 88.4553 77.5518C88.3629 80.2313 89.842 82.4641 92.6138 82.4641C94.8313 82.4641 96.0326 81.1839 96.125 80.5885V78.0877" stroke="white"/>
<path d="M197.02 82.4645C199.622 82.4645 201.732 80.4252 201.732 77.9095C201.732 75.3938 199.622 73.3545 197.02 73.3545C194.418 73.3545 192.308 75.3938 192.308 77.9095C192.308 80.4252 194.418 82.4645 197.02 82.4645Z" stroke="white"/>
<path d="M247.375 72.9072V78.6234C247.375 80.231 247.837 82.4639 250.147 82.4639C252.549 82.4639 253.104 80.3203 253.104 78.6234C253.104 77.4802 253.104 74.3363 253.104 72.9072" stroke="white"/>
<path d="M299.116 83.0004V73.3589C300.59 73.3589 303.736 73.1259 303.736 76.0319C303.736 78.9911 300.924 79.2775 299.418 79.0866" stroke="white"/>
<path d="M111.146 50.2167C111.146 53.1531 110.043 55.5479 107.837 57.401C105.659 59.2541 102.508 60.1806 98.3819 60.1806C96.1471 60.1806 94.1272 59.8528 92.3222 59.197C90.5171 58.5128 88.6548 57.401 86.7352 55.8615C86.3054 55.5194 86.2481 55.1202 86.5633 54.6641L90.1304 49.5752C90.4742 49.0906 90.8753 49.0336 91.3337 49.4042C94.0269 51.2573 96.6055 52.1838 99.0695 52.1838C101.362 52.1838 102.508 51.6136 102.508 50.4733C102.508 49.4184 101.075 48.6059 98.21 48.0357C96.9493 47.7792 95.7603 47.4513 94.6429 47.0522C93.5542 46.6245 92.3938 46.0258 91.1618 45.2561C89.9584 44.4864 88.9986 43.4458 88.2824 42.1344C87.5661 40.7944 87.2079 39.2549 87.2079 37.5159C87.2079 34.6365 88.3397 32.3985 90.6031 30.802C92.8952 29.2055 95.8176 28.4072 99.3704 28.4072C103.181 28.4072 106.748 29.4763 110.072 31.6145C110.559 31.9281 110.645 32.3272 110.329 32.8119L106.934 37.9008C106.59 38.3569 106.189 38.4424 105.731 38.1573C103.668 36.9314 101.448 36.3185 99.0695 36.3185C96.8634 36.3185 95.7603 36.8032 95.7603 37.7725C95.7603 38.3426 96.0468 38.7845 96.6199 39.0981C97.2215 39.4117 98.4535 39.7966 100.316 40.2528C103.983 41.165 106.705 42.3482 108.481 43.8021C110.258 45.2561 111.146 47.3943 111.146 50.2167ZM113.68 29.0059H136.414C136.987 29.0059 137.274 29.291 137.274 29.8612V35.9336C137.274 36.5038 136.987 36.7889 136.414 36.7889H129.237V58.7266C129.237 59.2968 128.951 59.5819 128.378 59.5819H121.716C121.143 59.5819 120.857 59.2968 120.857 58.7266V36.7889H113.68C113.107 36.7889 112.82 36.5038 112.82 35.9336V29.8612C112.82 29.291 113.107 29.0059 113.68 29.0059ZM143.642 59.5819H136.55C135.863 59.5819 135.634 59.2541 135.863 58.5984L145.575 29.6901C145.747 29.234 146.063 29.0059 146.521 29.0059H154.429C154.887 29.0059 155.202 29.234 155.374 29.6901L165.087 58.5984C165.316 59.2541 165.087 59.5819 164.399 59.5819H157.308C156.764 59.5819 156.434 59.3396 156.32 58.8549L155.159 54.6641H145.833L144.63 58.8549C144.515 59.3396 144.186 59.5819 143.642 59.5819ZM150.389 38.0718L147.853 47.6081H153.139L150.561 38.0718H150.389ZM179.894 59.5819H169.365C168.792 59.5819 168.506 59.2968 168.506 58.7266V29.8612C168.506 29.291 168.792 29.0059 169.365 29.0059H179.894C188.347 29.0059 192.573 33.154 192.573 41.4501V47.1377C192.573 49.1048 192.329 50.8439 191.842 52.3549C191.384 53.8373 190.768 55.0347 189.994 55.947C189.249 56.8308 188.318 57.5578 187.201 58.128C186.083 58.6981 184.937 59.083 183.762 59.2826C182.616 59.4821 181.327 59.5819 179.894 59.5819ZM176.886 36.8317V51.7562H180.066C182.674 51.7562 183.977 50.3877 183.977 47.6509V40.8942C183.977 38.1858 182.674 36.8317 180.066 36.8317H176.886ZM206.232 29.8612V58.7266C206.232 59.2968 205.946 59.5819 205.373 59.5819H198.711C198.138 59.5819 197.852 59.2968 197.852 58.7266V29.8612C197.852 29.291 198.138 29.0059 198.711 29.0059H205.373C205.946 29.0059 206.232 29.291 206.232 29.8612ZM236.579 47.8647C236.579 51.8845 235.533 54.9492 233.441 57.0589C231.379 59.14 228.356 60.1806 224.373 60.1806C220.391 60.1806 217.354 59.14 215.262 57.0589C213.199 54.9492 212.168 51.8845 212.168 47.8647V29.8612C212.168 29.291 212.454 29.0059 213.027 29.0059H219.775C220.348 29.0059 220.634 29.291 220.634 29.8612V48.0357C220.634 50.8581 221.881 52.2693 224.373 52.2693C226.866 52.2693 228.112 50.8581 228.112 48.0357V29.8612C228.112 29.291 228.399 29.0059 228.972 29.0059H235.719C236.292 29.0059 236.579 29.291 236.579 29.8612V47.8647ZM266.681 47.8647C266.681 51.8845 265.635 54.9492 263.544 57.0589C261.481 59.14 258.458 60.1806 254.475 60.1806C250.493 60.1806 247.456 59.14 245.364 57.0589C243.302 54.9492 242.27 51.8845 242.27 47.8647V29.8612C242.27 29.291 242.557 29.0059 243.13 29.0059H249.877C250.45 29.0059 250.736 29.291 250.736 29.8612V48.0357C250.736 50.8581 251.983 52.2693 254.475 52.2693C256.968 52.2693 258.214 50.8581 258.214 48.0357V29.8612C258.214 29.291 258.501 29.0059 259.074 29.0059H265.821C266.394 29.0059 266.681 29.291 266.681 29.8612V47.8647ZM280.022 59.5819H273.49C272.917 59.5819 272.63 59.2968 272.63 58.7266V29.8612C272.63 29.291 272.917 29.0059 273.49 29.0059H280.839C281.297 29.0059 281.627 29.2197 281.827 29.6474L284.578 35.1639C285.867 37.7297 287.199 40.7659 288.574 44.2725H288.746C290.122 40.7659 291.454 37.7297 292.743 35.1639L295.494 29.6474C295.694 29.2197 296.024 29.0059 296.482 29.0059H303.831C304.404 29.0059 304.691 29.291 304.691 29.8612V58.7266C304.691 59.2968 304.404 59.5819 303.831 59.5819H297.299C296.726 59.5819 296.439 59.2968 296.439 58.7266V55.6049C296.439 51.2715 296.597 46.6388 296.912 41.7067L296.697 41.664C295.895 43.8306 294.591 46.8954 292.786 50.8581L292.056 52.4404C291.855 52.868 291.526 53.0818 291.067 53.0818H286.254C285.795 53.0818 285.466 52.868 285.265 52.4404L284.535 50.8581C282.73 46.8954 281.426 43.8306 280.624 41.664L280.409 41.7067C280.724 46.6388 280.882 51.2715 280.882 55.6049V58.7266C280.882 59.2968 280.595 59.5819 280.022 59.5819Z" fill="white"/>
</g>
<path d="M237.288 5.032H241.124C242.123 5.032 242.907 5.27467 243.476 5.76C244.045 6.24533 244.33 6.91267 244.33 7.762C244.33 8.62067 244.041 9.29733 243.462 9.792C242.893 10.2773 242.113 10.52 241.124 10.52H238.156V15H237.288V5.032ZM241.068 9.764C241.852 9.764 242.445 9.59133 242.846 9.246C243.247 8.90067 243.448 8.406 243.448 7.762C243.448 7.12733 243.247 6.63733 242.846 6.292C242.445 5.94667 241.852 5.774 241.068 5.774H238.156V9.764H241.068ZM248.253 15.098C247.609 15.098 247.039 14.9487 246.545 14.65C246.059 14.3513 245.681 13.9267 245.411 13.376C245.149 12.8253 245.019 12.186 245.019 11.458C245.019 10.73 245.149 10.0907 245.411 9.54C245.681 8.98933 246.059 8.56467 246.545 8.266C247.039 7.96733 247.609 7.818 248.253 7.818C248.887 7.818 249.447 7.96733 249.933 8.266C250.418 8.56467 250.791 8.98933 251.053 9.54C251.323 10.0907 251.459 10.73 251.459 11.458C251.459 12.186 251.323 12.8253 251.053 13.376C250.791 13.9267 250.418 14.3513 249.933 14.65C249.447 14.9487 248.887 15.098 248.253 15.098ZM248.239 14.342C248.985 14.342 249.559 14.0947 249.961 13.6C250.371 13.096 250.577 12.382 250.577 11.458C250.577 10.5433 250.371 9.834 249.961 9.33C249.55 8.81667 248.981 8.56 248.253 8.56C247.515 8.56 246.941 8.81667 246.531 9.33C246.12 9.834 245.915 10.5433 245.915 11.458C245.915 12.3913 246.115 13.1053 246.517 13.6C246.918 14.0947 247.492 14.342 248.239 14.342ZM263.204 7.986L260.656 15H259.774L257.646 9.078L255.504 15H254.608L252.074 7.986H252.984L255.056 13.978L257.24 7.986H258.094L260.208 13.978L262.336 7.986H263.204ZM264.725 11.388V11.43C264.725 12.3727 264.94 13.096 265.369 13.6C265.808 14.0947 266.443 14.342 267.273 14.342C268.113 14.342 268.883 14.0527 269.583 13.474L269.919 14.146C269.611 14.4353 269.219 14.6687 268.743 14.846C268.267 15.014 267.777 15.098 267.273 15.098C266.209 15.098 265.369 14.776 264.753 14.132C264.137 13.488 263.829 12.6013 263.829 11.472C263.829 10.7533 263.965 10.1187 264.235 9.568C264.515 9.008 264.903 8.57867 265.397 8.28C265.892 7.972 266.461 7.818 267.105 7.818C268.029 7.818 268.748 8.11667 269.261 8.714C269.784 9.31133 270.045 10.142 270.045 11.206V11.388H264.725ZM267.105 8.518C266.461 8.518 265.939 8.714 265.537 9.106C265.136 9.48867 264.884 10.03 264.781 10.73H269.233C269.177 10.0113 268.967 9.46533 268.603 9.092C268.239 8.70933 267.74 8.518 267.105 8.518ZM274.403 7.818C274.636 7.818 274.841 7.83667 275.019 7.874L274.977 8.644C274.799 8.60667 274.585 8.588 274.333 8.588C273.623 8.588 273.091 8.81667 272.737 9.274C272.391 9.722 272.219 10.2587 272.219 10.884V15H271.379V9.932C271.379 9.204 271.341 8.55533 271.267 7.986H272.079L272.191 9.288C272.368 8.812 272.653 8.448 273.045 8.196C273.446 7.944 273.899 7.818 274.403 7.818ZM276.071 11.388V11.43C276.071 12.3727 276.286 13.096 276.715 13.6C277.154 14.0947 277.788 14.342 278.619 14.342C279.459 14.342 280.229 14.0527 280.929 13.474L281.265 14.146C280.957 14.4353 280.565 14.6687 280.089 14.846C279.613 15.014 279.123 15.098 278.619 15.098C277.555 15.098 276.715 14.776 276.099 14.132C275.483 13.488 275.175 12.6013 275.175 11.472C275.175 10.7533 275.31 10.1187 275.581 9.568C275.861 9.008 276.248 8.57867 276.743 8.28C277.238 7.972 277.807 7.818 278.451 7.818C279.375 7.818 280.094 8.11667 280.607 8.714C281.13 9.31133 281.391 10.142 281.391 11.206V11.388H276.071ZM278.451 8.518C277.807 8.518 277.284 8.714 276.883 9.106C276.482 9.48867 276.23 10.03 276.127 10.73H280.579C280.523 10.0113 280.313 9.46533 279.949 9.092C279.585 8.70933 279.086 8.518 278.451 8.518ZM288.675 4.696V15H287.821V13.656C287.615 14.1227 287.303 14.482 286.883 14.734C286.472 14.9767 285.977 15.098 285.399 15.098C284.783 15.098 284.237 14.9487 283.761 14.65C283.294 14.342 282.93 13.9127 282.669 13.362C282.407 12.802 282.277 12.158 282.277 11.43C282.277 10.702 282.403 10.0673 282.655 9.526C282.916 8.97533 283.28 8.55533 283.747 8.266C284.223 7.96733 284.773 7.818 285.399 7.818C285.968 7.818 286.458 7.93933 286.869 8.182C287.289 8.42467 287.606 8.77933 287.821 9.246V4.696H288.675ZM285.511 14.342C286.248 14.342 286.817 14.09 287.219 13.586C287.62 13.082 287.821 12.3727 287.821 11.458C287.821 10.5433 287.62 9.834 287.219 9.33C286.817 8.81667 286.253 8.56 285.525 8.56C284.778 8.56 284.199 8.812 283.789 9.316C283.378 9.82 283.173 10.5247 283.173 11.43C283.173 12.3447 283.378 13.0587 283.789 13.572C284.199 14.0853 284.773 14.342 285.511 14.342ZM296.84 7.818C297.456 7.818 298.002 7.96733 298.478 8.266C298.954 8.56467 299.318 8.98467 299.57 9.526C299.832 10.0673 299.962 10.702 299.962 11.43C299.962 12.158 299.832 12.802 299.57 13.362C299.309 13.9127 298.94 14.342 298.464 14.65C297.998 14.9487 297.456 15.098 296.84 15.098C296.262 15.098 295.762 14.972 295.342 14.72C294.932 14.468 294.624 14.104 294.418 13.628V15H293.564V4.696H294.404V9.302C294.61 8.81667 294.922 8.448 295.342 8.196C295.762 7.944 296.262 7.818 296.84 7.818ZM296.742 14.342C297.47 14.342 298.04 14.0853 298.45 13.572C298.861 13.0587 299.066 12.3447 299.066 11.43C299.066 10.5247 298.861 9.82 298.45 9.316C298.04 8.812 297.466 8.56 296.728 8.56C295.991 8.56 295.422 8.812 295.02 9.316C294.619 9.82 294.418 10.534 294.418 11.458C294.418 12.382 294.619 13.096 295.02 13.6C295.422 14.0947 295.996 14.342 296.742 14.342ZM307.217 7.986L303.913 15.728C303.587 16.4933 303.176 17.0533 302.681 17.408C302.196 17.772 301.585 18.0287 300.847 18.178L300.679 17.506C301.351 17.3473 301.855 17.142 302.191 16.89C302.537 16.638 302.826 16.2413 303.059 15.7L303.353 15.014L300.357 7.986H301.267L303.801 14.146L306.349 7.986H307.217Z" fill="white"/>
</g>
<defs>
<clipPath id="clip0">
<rect width="307" height="83" fill="white"/>
</clipPath>
<clipPath id="clip1">
<rect y="27" width="308" height="56" fill="white"/>
</clipPath>
</defs>
</svg>
